<?xml version="1.0" encoding="utf-8"?>
<!-- Generator: Adobe Illustrator 26.5.0, SVG Export Plug-In . SVG Version: 6.00 Build 0)  -->
<svg version="1.1" id="Layer_1" xmlns="http://www.w3.org/2000/svg" xmlns:xlink="http://www.w3.org/1999/xlink" x="0px" y="0px"
	 viewBox="0 0 245.8 283.2" style="enable-background:new 0 0 245.8 283.2;" xml:space="preserve">
<style type="text/css">
	.st0{fill:#FFFFFF;}
	.st1{fill:#5552A0;}
</style>
<path class="st0" d="M18.6,201.9V81.3L122.9,21l104.3,60.3v5.8c0,34.9-9.2,69.2-26.6,99.4c-17.4,30.2-42.6,55.3-72.7,72.7l-5,2.9
	L18.6,201.9z M91.1,191.8v-57.6c0-4.3,0.8-8.5,2.5-12.5l0.1-0.1c5.1-12.1,17-20,30.2-20c4.2,0,8.4,0.8,12.4,2.5l0.2,0.1
	c4,1.7,7.5,4.1,10.4,7.1c2.8,2.9,5.2,6.3,6.9,10.2c1.7,3.9,2.6,8.2,2.6,12.8v31.6c3.8-6.2,7.2-12.7,10.1-19.5v-12.2l0-0.1
	c0.2-5.4-0.9-10.9-3.2-16.4c-2.1-5.1-5.2-9.7-9.2-13.7c-3.9-3.9-8.6-7.1-13.6-9.2c-5.2-2.3-10.8-3.4-16.5-3.4
	c-10.8,0-21.1,4-29,11.2l-7.6,7l-6.3-7.3v89.6H91.1z"/>
<path class="st1" d="M122.9,32.6l94.3,54.5l0,0c0,67.5-35.9,129.7-94.3,163.4l0,0l-94.3-54.4v-109L122.9,32.6 M122.9-0.4l-14.3,8.3
	L14.3,62.4L0,70.6v142l14.3,8.3l94.3,54.5l14.3,8.3l14.3-8.3c67.3-38.8,108.6-110.5,108.6-188.2V70.6l-14.3-8.3L137.2,7.9L122.9-0.4
	C122.9-0.4,122.9-0.4,122.9-0.4z"/>
<path class="st1" d="M172.4,113.7c-2.7-6.3-6.5-12-11.3-16.8c-4.8-4.8-10.5-8.7-16.7-11.3c-6.4-2.8-13.4-4.2-20.4-4.2
	c-13.3,0-26,4.9-35.7,13.8l-9.9-11.5H71v118.2h30v-67.6c0-3.1,0.6-6,1.7-8.8c3.6-8.5,11.9-13.9,21-13.9c3,0,5.9,0.6,8.7,1.7
	c2.7,1.1,5.1,2.8,7.1,4.9c2,2,3.7,4.5,4.9,7.2c1.2,2.8,1.7,5.7,1.7,8.8v61.2c12.8-13.8,23-29.8,30.1-47.2v-14.1
	C176.6,127.2,175.2,120.3,172.4,113.7z"/>
</svg>
