<?xml version="1.0" encoding="UTF-8"?>
<svg id="Layer_1" data-name="Layer 1" xmlns="http://www.w3.org/2000/svg" viewBox="0 0 245.8 283.2">
  <defs>
    <style>
      .cls-1 {
        fill: #5552a0;
        stroke: #cfc5fd;
        stroke-linecap: round;
        stroke-linejoin: round;
        stroke-width: 5px;
      }
    </style>
  </defs>
  <path class="cls-1" d="M122.9,34.8l92.4,53.4h0c0,66.1-35.2,127.1-92.4,160.1h0L30.5,195V88.2L122.9,34.8m0-32.3l-14,8.1L16.5,64l-14,8V211.1l14,8.1,92.4,53.4,14,8.1,14-8.1c65.9-38,106.4-108.3,106.4-184.4v-16.2l-14-8.1L136.9,10.6l-14-8.1h0Z"/>
  <path class="cls-1" d="M171.4,114.3c-2.6-6.2-6.4-11.8-11.1-16.5-4.7-4.7-10.3-8.5-16.4-11.1-6.3-2.7-13.1-4.1-20-4.1-13,0-25.5,4.8-35,13.5l-9.7-11.3h-7.1v115.8h29.4v-66.2c0-3,.6-5.9,1.7-8.6,3.5-8.3,11.7-13.6,20.6-13.6,2.9,0,5.8,.6,8.5,1.7,2.6,1.1,5,2.7,7,4.8,2,2,3.6,4.4,4.8,7.1s1.7,5.6,1.7,8.6v60c12.5-13.5,22.5-29.2,29.5-46.2v-13.8c.2-6.9-1.2-13.7-3.9-20.1Z"/>
</svg>