<?xml version="1.0" encoding="UTF-8"?>
<svg id="Layer_4" data-name="Layer 4" xmlns="http://www.w3.org/2000/svg" viewBox="0 0 875 1000">
  <defs>
    <style>
      .cls-1 {
        opacity: .2;
      }

      .cls-1, .cls-2 {
        fill: #cfc5fd;
      }
    </style>
  </defs>
  <rect class="cls-1" x="125" y="125" width="625.5" height="625.5"/>
  <path class="cls-2" d="M0,0V1000H875V0H0ZM750,750.5H125V125H750V750.5Z"/>
  <path class="cls-2" d="M515.62,242.19c-43.14,0-78.12,34.98-78.12,78.12s34.98,78.13,78.12,78.13,78.13-34.98,78.13-78.13-34.98-78.12-78.13-78.12Zm0,117.19v-78.13c21.58,0,39.07,17.49,39.07,39.06s-17.49,39.07-39.07,39.07Z"/>
  <path class="cls-2" d="M730.97,659.19v-78.13l-98.16-65.44-117.19,78.13-156.24-117.19-214.85,143.23v111.18H490.24l-130.86-98.15v-78.13l156.24,117.19,55.15,41.36-26.59,17.73h177.26l-88.63-59.09v-78.13l98.16,65.44Z"/>
</svg>