<?xml version="1.0" encoding="utf-8"?>
<!-- Generator: Adobe Illustrator 26.5.0, SVG Export Plug-In . SVG Version: 6.00 Build 0)  -->
<svg version="1.1" id="Layer_1" xmlns="http://www.w3.org/2000/svg" xmlns:xlink="http://www.w3.org/1999/xlink" x="0px" y="0px"
	 viewBox="0 0 240.9 278.2" style="enable-background:new 0 0 240.9 278.2;" xml:space="preserve">
<style type="text/css">
	.st0{fill:#2C2A53;}
</style>
<path class="st0" d="M120.4,32.3l92.4,53.4l0,0c0,66.1-35.2,127.1-92.4,160.1l0,0L28,192.5V85.7L120.4,32.3 M120.4,0l-14,8.1
	L14,61.5l-14,8v139.1l14,8.1l92.4,53.4l14,8.1l14-8.1c65.9-38,106.4-108.3,106.4-184.4V69.5l-14-8.1L134.4,8.1L120.4,0L120.4,0z"/>
<path class="st0" d="M168.9,111.8c-2.6-6.2-6.4-11.8-11.1-16.5c-4.7-4.7-10.3-8.5-16.4-11.1c-6.3-2.7-13.1-4.1-20-4.1
	c-13,0-25.5,4.8-35,13.5l-9.7-11.3h-7.1v115.8H99v-66.2c0-3,0.6-5.9,1.7-8.6c3.5-8.3,11.7-13.6,20.6-13.6c2.9,0,5.8,0.6,8.5,1.7
	c2.6,1.1,5,2.7,7,4.8c2,2,3.6,4.4,4.8,7.1s1.7,5.6,1.7,8.6v60c12.5-13.5,22.5-29.2,29.5-46.2v-13.8C173,125,171.6,118.2,168.9,111.8
	z"/>
</svg>
